<svg width="33" height="26" viewBox="0 0 33 26" fill="none" xmlns="http://www.w3.org/2000/svg">
<path d="M17.2253 4.0723C21.8445 2.95365 26.7201 5.4985 27.6241 10.3442C29.7218 21.6628 8.6122 25.8095 9.74646 13.7138C9.76548 13.4457 9.6238 13.2494 9.4312 13.149C10.2937 8.9496 12.8009 5.14597 17.2253 4.0723Z" fill="#E89C82"/>
<path d="M27.6241 10.3442C26.7199 5.49927 21.8444 2.95364 17.2253 4.07229C12.8009 5.14596 10.2936 8.94959 9.43113 13.149C9.62374 13.2494 9.76558 13.4449 9.7464 13.7138C8.61214 25.8095 29.7217 21.6628 27.6241 10.3442ZM20.134 2.18416C25.3381 2.49579 29.8706 6.97974 29.4107 12.3751C28.9297 18.184 22.6846 22.8987 17.0536 22.894C12.2118 22.8851 8.22347 18.9854 8.62506 14.2198C8.15683 14.225 7.66107 13.8648 7.75345 13.2621C8.72537 7.12188 13.53 1.78338 20.134 2.18416Z" fill="#1D1D1B"/>
<path d="M5.05261 14.2715L27.8271 1.96361L30.2701 6.48421L7.49566 18.7921L5.05261 14.2715Z" fill="#E0DB46"/>
<path d="M5.05261 14.2735L27.8271 1.96565L30.2701 6.48626L7.49566 18.7941L5.05261 14.2735Z" fill="#E0DB46"/>
<path d="M27.8048 1.99332L28.377 1.68411C29.4751 1.09065 30.8464 1.49977 31.4399 2.59792L31.7338 3.14179C32.3273 4.23994 31.9181 5.61126 30.82 6.20472L30.2479 6.51392L27.8048 1.99332Z" fill="#E376B7"/>
<path d="M13.6383 3.47591C14.0167 2.31322 15.3391 1.59812 16.534 1.82787C17.7103 2.05358 18.2283 3.25495 18.0206 4.3479C17.5228 6.91451 14.2597 6.1287 13.9019 3.92189C13.8695 3.71027 13.7636 3.57075 13.6383 3.47591Z" fill="#E89C82"/>
<path d="M16.534 1.82781C15.3391 1.59805 14.0167 2.31315 13.6382 3.47585C13.7634 3.57146 13.8693 3.71098 13.9011 3.92166C14.2587 6.12925 17.522 6.91428 18.0198 4.34766C18.2275 3.25472 17.7103 2.05352 16.534 1.82781ZM19.2623 4.40347C19.0431 6.08736 17.678 7.40541 15.9312 7.25081C14.3267 7.11649 12.587 5.71867 12.6802 3.98791C12.696 3.68971 12.8536 3.50052 13.0471 3.41614C13.0512 3.39745 13.0325 3.39342 13.0366 3.37474C13.3199 1.66564 15.0704 0.498802 16.7669 0.750089C18.5268 1.0249 19.4815 2.71959 19.2623 4.40347Z" fill="#1D1D1B"/>
<path d="M8.62666 5.93809C10.5235 5.19205 12.2995 6.48141 12.6493 8.12716C12.9739 9.74066 11.8559 11.4138 9.68415 11.0622C8.50697 10.8604 7.4655 10.1819 6.85073 9.31721C6.44569 7.92597 7.04474 6.56622 8.62666 5.93809Z" fill="#E89C82"/>
<path d="M12.0337 8.1428C11.7694 6.7659 10.3632 5.70089 8.84184 6.34382C7.57304 6.88501 7.08232 8.03072 7.39282 9.19458C7.87681 9.91433 8.70113 10.4736 9.63919 10.632C11.3702 10.9061 12.2781 9.49288 12.0337 8.1428ZM8.49571 4.99327C10.8562 4.253 13.1001 5.88013 13.4733 7.99573C13.8489 10.1006 12.2572 12.2493 9.64875 11.829C8.60876 11.671 7.65585 11.1063 6.97284 10.365C6.70734 10.4077 6.41682 10.3335 6.24053 10.0834C4.80994 8.18656 6.3821 5.65305 8.49571 4.99327Z" fill="#1D1D1B"/>
<path d="M1.86126 18.8904L5.06962 14.2517L7.50054 18.7913L1.86126 18.8904Z" fill="#D9D9D9"/>
<path d="M1.88795 18.8598L2.991 17.184L3.89417 18.8579L1.88795 18.8598Z" fill="#1D1D1B"/>
<path d="M28.9663 6.23316L8.32364 17.3079L8.10999 16.9094L28.7527 5.83469L28.9663 6.23316Z" fill="#1D1D1B"/>
<path d="M27.4596 3.521L6.81687 14.5957L6.60321 14.1973L27.2459 3.12253L27.4596 3.521Z" fill="#1D1D1B"/>
<path d="M27.4596 5.3291L6.81687 16.4038L6.60321 16.0054L27.2459 4.93063L27.4596 5.3291Z" fill="#1D1D1B"/>
<path d="M20.4503 3.90017C20.5134 3.69946 20.3328 3.54371 20.1528 3.52424C20.3611 2.51865 21.0045 1.70528 22.2181 1.93909C23.3851 2.16277 24.1065 3.23384 23.9722 4.39079C23.8675 5.32101 23.1479 6.26382 22.1176 6.12844C21.1157 5.98946 20.1261 4.94826 20.4503 3.90017Z" fill="#E89C82"/>
<path d="M20.4503 3.90019C20.1261 4.94828 21.1157 5.98947 22.1166 6.12906C23.147 6.26444 23.8674 5.3218 23.9713 4.3914C24.1058 3.23368 23.3849 2.16355 22.2172 1.9397C21.0036 1.70589 20.3601 2.51931 20.1518 3.5249C20.3336 3.54393 20.5134 3.69948 20.4503 3.90019ZM21.6589 7.20609C20.3642 6.80878 19.5721 5.61566 19.71 4.35189C19.4332 4.41821 19.0811 4.29377 18.9908 3.99214C18.4065 2.06638 20.4333 0.433667 22.2271 0.638398C24.1511 0.870543 25.4684 2.64469 25.2217 4.54595C24.9945 6.26643 23.4737 7.76508 21.6589 7.20609Z" fill="#1D1D1B"/>
</svg>
