<svg width="30" height="27" viewBox="0 0 30 27" fill="none" xmlns="http://www.w3.org/2000/svg">
<path d="M3.65612 4.27469C5.54615 3.53135 7.31565 4.81605 7.66424 6.45585C7.9876 8.06351 6.87368 9.73056 4.70978 9.38023C3.53687 9.17922 2.49916 8.5032 1.88661 7.64159C1.48304 6.25539 2.07992 4.90055 3.65612 4.27469Z" fill="#E89C82"/>
<path d="M16.0729 5.01606C20.6754 3.90145 25.5334 6.4371 26.4342 11.2653C28.5242 22.5429 7.49098 26.6746 8.62114 14.6227C8.64008 14.3555 8.49892 14.16 8.30701 14.0599C9.16637 9.87572 11.6646 6.08584 16.0729 5.01606Z" fill="#E89C82"/>
<path d="M7.05082 6.47144C6.78747 5.09953 5.38635 4.03837 3.87049 4.67898C2.60627 5.2182 2.11733 6.35977 2.4267 7.51942C2.90894 8.23657 3.73028 8.79383 4.66495 8.95167C6.38969 9.2248 7.29432 7.81664 7.05082 6.47144ZM3.52561 3.33331C5.87757 2.59572 8.11331 4.21696 8.48519 6.3249C8.8594 8.42215 7.2735 10.5631 4.67448 10.1443C3.63824 9.98686 2.68878 9.42427 2.00824 8.68561C1.7437 8.72816 1.45423 8.65421 1.27858 8.40508C-0.146835 6.51505 1.41964 3.9907 3.52561 3.33331Z" fill="#1D1D1B"/>
<path d="M26.4341 11.2653C25.5331 6.43788 20.6753 3.90145 16.0728 5.01606C11.6645 6.08584 9.16627 9.87572 8.30691 14.0599C8.49882 14.16 8.64015 14.3547 8.62104 14.6227C7.49088 26.6746 28.5241 22.5429 26.4341 11.2653ZM18.971 3.13476C24.1563 3.44526 28.6725 7.91299 28.2143 13.2888C27.7349 19.0767 21.5124 23.7744 15.9018 23.7697C11.0776 23.7608 7.10362 19.8752 7.50376 15.1269C7.03722 15.1321 6.54325 14.7732 6.6353 14.1726C7.6037 8.05462 12.3909 2.73542 18.971 3.13476Z" fill="#1D1D1B"/>
<path d="M19.2863 4.84452C19.3491 4.64454 19.1692 4.48935 18.9898 4.46995C19.1973 3.468 19.8385 2.65757 21.0477 2.89053C22.2104 3.1134 22.9293 4.1806 22.7955 5.33337C22.6911 6.26023 21.9741 7.19963 20.9475 7.06474C19.9492 6.92626 18.9632 5.88883 19.2863 4.84452Z" fill="#E89C82"/>
<path d="M12.4989 4.42183C12.876 3.26334 14.1936 2.55082 15.3842 2.77975C16.5562 3.00464 17.0723 4.20166 16.8654 5.29066C16.3694 7.84799 13.1181 7.06503 12.7616 4.8662C12.7293 4.65534 12.6238 4.51632 12.4989 4.42183Z" fill="#E89C82"/>
<path d="M19.2863 4.84455C18.9632 5.88886 19.9492 6.92628 20.9465 7.06536C21.9732 7.20025 22.691 6.26103 22.7945 5.33399C22.9285 4.18046 22.2102 3.11419 21.0467 2.89116C19.8375 2.65819 19.1964 3.46867 18.9888 4.47062C19.1699 4.48958 19.3491 4.64457 19.2863 4.84455ZM20.4905 8.1385C19.2004 7.74262 18.4113 6.55382 18.5486 5.29462C18.2728 5.3607 17.922 5.23671 17.832 4.93618C17.2499 3.01738 19.2693 1.39057 21.0566 1.59456C22.9736 1.82586 24.2862 3.5936 24.0404 5.48798C23.814 7.20223 22.2987 8.69547 20.4905 8.1385Z" fill="#1D1D1B"/>
<path d="M15.3841 2.7797C14.1935 2.55077 12.8759 3.26328 12.4988 4.42177C12.6236 4.51704 12.7291 4.65606 12.7607 4.86598C13.1171 7.06558 16.3685 7.84777 16.8646 5.29044C17.0715 4.20144 16.5561 3.00459 15.3841 2.7797ZM18.1025 5.34604C17.8841 7.02384 16.524 8.33713 14.7835 8.18309C13.1848 8.04925 11.4514 6.65648 11.5443 4.93198C11.56 4.63486 11.717 4.44636 11.9099 4.36228C11.9139 4.34366 11.8953 4.33965 11.8993 4.32103C12.1817 2.61811 13.9258 1.45549 15.6162 1.70587C17.3697 1.97969 18.3209 3.66825 18.1025 5.34604Z" fill="#1D1D1B"/>
</svg>
